<?xml version="1.0" encoding="utf-8"?>
<!-- Generator: Adobe Illustrator 25.0.1, SVG Export Plug-In . SVG Version: 6.00 Build 0)  -->
<svg version="1.1" id="Capa_1" xmlns="http://www.w3.org/2000/svg" xmlns:xlink="http://www.w3.org/1999/xlink" x="0px" y="0px"
	 viewBox="0 0 709.9 82.7" style="enable-background:new 0 0 709.9 82.7;" xml:space="preserve">
<style type="text/css">
	.st0{fill:#001C41;}
	.st1{fill:#E41F38;}
</style>
<g>
	<path class="st0" d="M18.2,27.5c-3.3,0-5.9,1-7.8,3.1c-1.9,2-2.9,4.6-2.9,7.7c0,3.1,1,5.7,2.9,7.7c1.9,2,4.5,3.1,7.8,3.1
		c3.3,0,5.9-1,7.8-3.1c1.9-2,2.9-4.6,2.9-7.7c0-3.1-1-5.7-2.9-7.7C24.1,28.5,21.5,27.5,18.2,27.5z M23,43.4
		c-1.1,1.3-2.7,1.9-4.8,1.9c-2,0-3.6-0.6-4.7-1.9c-1.2-1.3-1.7-3-1.7-5.2c0-2.2,0.6-3.9,1.7-5.2c1.1-1.3,2.7-1.9,4.7-1.9
		c2.1,0,3.7,0.6,4.8,1.9c1.1,1.3,1.7,3,1.7,5.2C24.7,40.4,24.1,42.2,23,43.4z"/>
	<path class="st0" d="M48.8,27.7c-0.7,0-1.2,0.2-1.5,0.6c-0.4,0.4-0.5,0.9-0.5,1.6l0,6.5h-9.8l0-6.5c0-0.6-0.2-1.2-0.5-1.6
		c-0.3-0.4-0.9-0.6-1.5-0.6c-0.7,0-1.2,0.2-1.5,0.6c-0.4,0.4-0.5,0.9-0.5,1.6v16.7c0,0.6,0.2,1.2,0.5,1.6c0.4,0.4,0.9,0.6,1.5,0.6
		c0.7,0,1.2-0.2,1.5-0.6c0.3-0.4,0.5-0.9,0.5-1.6v-6.5h9.9v6.5c0,0.6,0.2,1.2,0.5,1.6c0.4,0.4,0.9,0.6,1.5,0.6
		c0.7,0,1.2-0.2,1.5-0.6c0.3-0.4,0.5-0.9,0.5-1.6V29.9c0-0.6-0.2-1.2-0.5-1.6C50,27.9,49.5,27.7,48.8,27.7z"/>
	<path class="st0" d="M67.1,32c-0.6-1.7-1.1-2.8-1.6-3.4c-0.5-0.6-1.2-0.9-2.1-0.9c-0.9,0-1.6,0.3-2.1,0.9c-0.5,0.6-1,1.7-1.6,3.3
		l-5.3,14.2c-0.3,0.7-0.2,1.3,0.2,1.9c0.4,0.5,1,0.8,1.7,0.8c0.5,0,0.9-0.1,1.2-0.4c0.3-0.3,0.5-0.8,0.8-1.4l1.1-3h0.1h7.6
		c0.2,0,0.3,0,0.3,0l1.1,3c0.2,0.7,0.5,1.1,0.8,1.4c0.3,0.3,0.7,0.4,1.2,0.4c0.8,0,1.4-0.3,1.7-0.8c0.4-0.5,0.4-1.2,0.2-1.9L67.1,32
		z M60.7,40.3l2.7-7.4h0.1l2.7,7.4H60.7z"/>
	<path class="st0" d="M87.3,27.7c-0.7,0-1.3,0.4-1.8,1.1L81,36.5h-0.1l-4.5-7.7c-0.3-0.4-0.6-0.7-0.8-0.9c-0.3-0.2-0.6-0.2-1-0.2
		c-0.6,0-1,0.2-1.4,0.6c-0.4,0.4-0.6,0.9-0.6,1.4c0,0.3,0.1,0.7,0.3,0.9l6.1,9.9v6c0,0.6,0.2,1.2,0.5,1.6c0.4,0.4,0.9,0.6,1.5,0.6
		c0.7,0,1.2-0.2,1.5-0.6c0.3-0.4,0.5-0.9,0.5-1.6v-6l6-10c0.2-0.3,0.2-0.6,0.2-0.9c0-0.6-0.2-1-0.6-1.4
		C88.3,27.9,87.8,27.7,87.3,27.7z"/>
	<path class="st0" d="M101.7,27.5c-3.3,0-5.9,1-7.8,3.1c-1.9,2-2.9,4.6-2.9,7.7c0,3.1,1,5.7,2.9,7.7c1.9,2,4.5,3.1,7.8,3.1
		c3.3,0,5.9-1,7.8-3.1c1.9-2,2.9-4.6,2.9-7.7c0-3.1-1-5.7-2.9-7.7C107.5,28.5,104.9,27.5,101.7,27.5z M106.4,43.4
		c-1.1,1.3-2.7,1.9-4.8,1.9c-2,0-3.6-0.6-4.7-1.9c-1.2-1.3-1.7-3-1.7-5.2c0-2.2,0.6-3.9,1.7-5.2c1.1-1.3,2.7-1.9,4.7-1.9
		c2.1,0,3.7,0.6,4.8,1.9c1.1,1.3,1.7,3,1.7,5.2C108.1,40.4,107.6,42.2,106.4,43.4z"/>
	<path class="st0" d="M233.2,41.2l11.5-18.7c0.7-1.2,1.1-2.7,1.1-4.4c0-2.6-1-4.8-2.9-6.6c-1.9-1.8-4.2-2.7-6.9-2.7
		c-2.2,0-3.9,0.4-5.1,1.2c-1.2,0.8-2.3,2.1-3.3,3.9l-10.4,18.2h-6.9V18.6c0-3-0.8-5.4-2.5-7.2c-1.7-1.8-4-2.7-7.1-2.7
		c-3.1,0-5.5,0.9-7.2,2.7s-2.6,4.2-2.6,7.2v45.5c0,3,0.8,5.4,2.5,7.1c1.7,1.7,4.1,2.6,7.2,2.6c3.1,0,5.4-0.9,7.1-2.6
		c1.7-1.7,2.5-4.1,2.5-7.1V50.3h6.4l10.8,18.2c1.1,1.9,2.2,3.2,3.5,4.1c1.3,0.8,3,1.2,5.1,1.2c2.7,0,5.1-0.9,7.1-2.7
		c2-1.8,3.1-4.1,3.1-6.7c0-1.7-0.4-3.1-1.2-4.4L233.2,41.2z"/>
	<path class="st0" d="M264.2,8.8c-3.1,0-5.5,0.9-7.2,2.7c-1.7,1.8-2.6,4.2-2.6,7.2v45.5c0,3,0.9,5.4,2.6,7.1
		c1.7,1.7,4.1,2.6,7.2,2.6c3.1,0,5.4-0.9,7.1-2.6c1.7-1.7,2.5-4.1,2.5-7.1V18.6c0-3-0.8-5.4-2.5-7.2C269.6,9.7,267.2,8.8,264.2,8.8z
		"/>
	<path class="st0" d="M334.9,8.8c-3.1,0-5.5,0.9-7.2,2.7s-2.6,4.2-2.6,7.2l-0.1,13.5h-20.4V18.6c0-3-0.8-5.4-2.5-7.2
		c-1.7-1.8-4.1-2.7-7.1-2.7c-3.1,0-5.5,0.9-7.2,2.7s-2.6,4.2-2.6,7.2v45.5c0,3,0.9,5.4,2.6,7.1c1.7,1.7,4.1,2.6,7.2,2.6
		c3.1,0,5.4-0.9,7.1-2.6c1.7-1.7,2.5-4.1,2.5-7.1V50.4h20.4v13.7c0,3,0.8,5.4,2.5,7.1c1.7,1.7,4.1,2.6,7.2,2.6
		c3.1,0,5.4-0.9,7.1-2.6c1.7-1.7,2.5-4.1,2.5-7.1V18.6c0-3-0.8-5.4-2.5-7.2C340.4,9.7,338,8.8,334.9,8.8z"/>
	<path class="st0" d="M459.9,40.9v-0.2c2.8-1.2,5-3,6.5-5.4c1.5-2.3,2.2-5,2.2-8c0-12-8.2-18-24.6-18l-15,0.1
		c-3.3,0-5.8,0.9-7.6,2.7c-1.7,1.8-2.6,4.3-2.6,7.5v43.4c0,3.2,0.9,5.8,2.6,7.5c1.7,1.8,4.3,2.7,7.6,2.7h14.9c9.2,0,16-1.4,20.3-4.2
		c4.3-2.8,6.5-7.3,6.5-13.4C470.7,48.7,467.1,43.8,459.9,40.9z"/>
	<path class="st0" d="M593.9,31.7c0-15.2-9.2-22.8-27.5-22.9l-15-0.1c-3.3,0-5.8,0.9-7.6,2.6c-1.7,1.7-2.6,4.3-2.6,7.6v45.2
		c0,3,0.9,5.4,2.6,7.1c1.7,1.7,4.1,2.6,7.2,2.6c3.1,0,5.4-0.9,7.1-2.6c1.7-1.7,2.5-4.1,2.5-7.1v-9.5h5.3l7.9,13.4
		c1.2,2.1,2.4,3.6,3.6,4.5c1.2,0.9,2.8,1.4,4.7,1.4c3.1,0,5.6-0.8,7.5-2.5c1.9-1.7,2.8-3.5,2.8-5.7c0-1.9-0.7-3.8-1.9-5.8l-6.1-9.2
		C590.8,45.9,593.9,39.5,593.9,31.7z"/>
	<path class="st0" d="M658.8,56.8c0,0,0.1,0,0.1-0.1l-14-36.4c-1.7-4.3-3.7-7.4-6.1-9.3c-2.4-1.9-5.8-2.9-10.3-2.9
		c-4.4,0-7.9,1-10.3,2.9s-4.5,5-6.1,9.2L598.8,55c0,0,0,0.1,0.1,0.1c-0.6,1.5-0.9,3.1-0.9,4.8c0,5.9,3.9,11,9.4,13.3
		c2.1,0.9,4.3,1.3,6.8,1.3c6.3,0,11.7-3.2,14.4-7.9c2.7,4.7,8.1,7.9,14.4,7.9c2.4,0,4.7-0.5,6.8-1.3c5.6-2.3,9.4-7.4,9.4-13.3
		C659.1,58.8,659,57.8,658.8,56.8C658.8,56.8,658.8,56.8,658.8,56.8z"/>
	<path class="st0" d="M412,56.8c0,0,0.1,0,0.1-0.1l-14-36.4c-1.7-4.3-3.7-7.4-6.1-9.3c-2.4-1.9-5.8-2.9-10.3-2.9
		c-4.4,0-7.9,1-10.3,2.9c-2.4,1.9-4.5,5-6.1,9.2L352.1,55c0,0,0,0.1,0.1,0.1c-0.6,1.5-0.9,3.1-0.9,4.8c0,5.9,3.9,11,9.4,13.3
		c2.1,0.9,4.3,1.3,6.8,1.3c6.3,0,11.7-3.2,14.4-7.9c2.7,4.7,8.1,7.9,14.4,7.9c2.4,0,4.7-0.5,6.8-1.3c5.6-2.3,9.4-7.4,9.4-13.3
		C412.4,58.8,412.3,57.8,412,56.8C412,56.8,412,56.8,412,56.8z"/>
	<path class="st0" d="M536.3,56.8c0,0,0.1,0,0.1-0.1l-14-36.4c-1.7-4.3-3.7-7.4-6.1-9.3c-2.4-1.9-5.8-2.9-10.3-2.9
		c-4.4,0-7.9,1-10.3,2.9c-2.4,1.9-4.5,5-6.1,9.2L476.3,55c0,0,0,0.1,0.1,0.1c-0.6,1.5-0.9,3.1-0.9,4.8c0,5.9,3.9,11,9.4,13.3
		c2.1,0.9,4.3,1.3,6.8,1.3c6.3,0,11.7-3.2,14.4-7.9c2.7,4.7,8.1,7.9,14.4,7.9c2.4,0,4.7-0.5,6.8-1.3c5.6-2.3,9.4-7.4,9.4-13.3
		C536.6,58.8,536.5,57.8,536.3,56.8C536.3,56.8,536.3,56.8,536.3,56.8z"/>
	<path class="st0" d="M184,56.8c0,0,0.1,0,0.1-0.1l-14-36.4c-1.7-4.3-3.7-7.4-6.1-9.3c-2.4-1.9-5.8-2.9-10.3-2.9
		c-4.4,0-7.9,1-10.3,2.9s-4.5,5-6.1,9.2L124.1,55c0,0,0,0.1,0.1,0.1c-0.6,1.5-0.9,3.1-0.9,4.8c0,5.9,3.9,11,9.4,13.3
		c2.1,0.9,4.3,1.3,6.8,1.3c6.3,0,11.7-3.2,14.4-7.9c2.7,4.7,8.1,7.9,14.4,7.9c2.4,0,4.7-0.5,6.8-1.3c5.6-2.3,9.4-7.4,9.4-13.3
		C184.4,58.8,184.3,57.8,184,56.8C184,56.8,184,56.8,184,56.8z"/>
	<path class="st0" d="M98.6,25.3h6.1c1,0,1.8-0.8,1.8-1.8v0c0-1-0.8-1.8-1.8-1.8h-6.1c-1,0-1.8,0.8-1.8,1.8v0
		C96.7,24.5,97.6,25.3,98.6,25.3z"/>
	<path class="st0" d="M677.6,39c0.2,7,3.3,10.5,9.3,10.5s9.1-3.5,9.4-10.4l0.4-18.6c0.1-3.8-0.7-6.8-2.3-8.9
		c-1.7-2.1-4.1-3.2-7.4-3.2c-3.3,0-5.8,1.1-7.5,3.2c-1.7,2.1-2.5,5.1-2.4,9L677.6,39z"/>
	<path class="st0" d="M695.1,57.3c-2-1.9-4.7-2.8-8.1-2.8s-6.1,1-8.2,2.9c-2.1,1.9-3.1,4.3-3.1,7.1c0,3.1,1,5.5,3,7.4
		c2,1.8,4.7,2.7,8.3,2.7c3.5,0,6.2-0.9,8.2-2.7c2-1.8,2.9-4.3,2.9-7.4C698.1,61.6,697.1,59.2,695.1,57.3z"/>
</g>
</svg>
